<mxfile host="65bd71144e">
    <diagram id="jV6p40HSa1Z1vUwdNy-H" name="Page-1">
        <mxGraphModel dx="677" dy="258" grid="1" gridSize="10" guides="1" tooltips="1" connect="1" arrows="1" fold="1" page="1" pageScale="1" pageWidth="850" pageHeight="1100" math="0" shadow="0">
            <root>
                <mxCell id="0"/>
                <mxCell id="1" parent="0"/>
                <mxCell id="2" value="Klient" style="rounded=0;whiteSpace=wrap;html=1;" vertex="1" parent="1">
                    <mxGeometry x="360" y="20" width="60" height="180" as="geometry"/>
                </mxCell>
                <mxCell id="3" value="Ressourcen-&lt;br&gt;besitzer" style="rounded=0;whiteSpace=wrap;html=1;" vertex="1" parent="1">
                    <mxGeometry x="550" y="20" width="90" height="40" as="geometry"/>
                </mxCell>
                <mxCell id="4" value="Autorisierungs-server" style="rounded=0;whiteSpace=wrap;html=1;" vertex="1" parent="1">
                    <mxGeometry x="550" y="90" width="90" height="40" as="geometry"/>
                </mxCell>
                <mxCell id="5" value="Ressourcen-&lt;br&gt;Server" style="rounded=0;whiteSpace=wrap;html=1;" vertex="1" parent="1">
                    <mxGeometry x="550" y="160" width="90" height="40" as="geometry"/>
                </mxCell>
                <mxCell id="6" value="" style="endArrow=classic;html=1;entryX=0;entryY=0.25;entryDx=0;entryDy=0;exitX=1.003;exitY=0.053;exitDx=0;exitDy=0;exitPerimeter=0;" edge="1" parent="1" source="2" target="3">
                    <mxGeometry width="50" height="50" relative="1" as="geometry">
                        <mxPoint x="430" y="30" as="sourcePoint"/>
                        <mxPoint x="440" y="130" as="targetPoint"/>
                    </mxGeometry>
                </mxCell>
                <mxCell id="12" value="&lt;font style=&quot;font-size: 9px;&quot;&gt;Authorisierungsanfrage&lt;/font&gt;" style="edgeLabel;html=1;align=center;verticalAlign=middle;resizable=0;points=[];" vertex="1" connectable="0" parent="6">
                    <mxGeometry x="-0.1151" y="1" relative="1" as="geometry">
                        <mxPoint x="12" y="-9" as="offset"/>
                    </mxGeometry>
                </mxCell>
                <mxCell id="7" value="" style="endArrow=classic;html=1;exitX=0;exitY=0.75;exitDx=0;exitDy=0;" edge="1" parent="1" source="3">
                    <mxGeometry width="50" height="50" relative="1" as="geometry">
                        <mxPoint x="430.17999999999984" y="39.539999999999964" as="sourcePoint"/>
                        <mxPoint x="420" y="50" as="targetPoint"/>
                    </mxGeometry>
                </mxCell>
                <mxCell id="13" value="&lt;font style=&quot;font-size: 9px;&quot;&gt;Authorisierungsbestätigung&lt;/font&gt;" style="edgeLabel;html=1;align=center;verticalAlign=middle;resizable=0;points=[];" vertex="1" connectable="0" parent="7">
                    <mxGeometry x="0.1946" y="1" relative="1" as="geometry">
                        <mxPoint x="18" y="9" as="offset"/>
                    </mxGeometry>
                </mxCell>
                <mxCell id="8" value="" style="endArrow=classic;html=1;entryX=0;entryY=0.25;entryDx=0;entryDy=0;exitX=1.003;exitY=0.053;exitDx=0;exitDy=0;exitPerimeter=0;" edge="1" parent="1" target="4">
                    <mxGeometry width="50" height="50" relative="1" as="geometry">
                        <mxPoint x="420.18000000000006" y="99.47999999999999" as="sourcePoint"/>
                        <mxPoint x="520" y="99.94" as="targetPoint"/>
                    </mxGeometry>
                </mxCell>
                <mxCell id="14" value="Autorisierungsbestätigung" style="edgeLabel;html=1;align=center;verticalAlign=middle;resizable=0;points=[];fontSize=9;" vertex="1" connectable="0" parent="8">
                    <mxGeometry x="0.1472" y="-1" relative="1" as="geometry">
                        <mxPoint x="-5" y="-11" as="offset"/>
                    </mxGeometry>
                </mxCell>
                <mxCell id="9" value="" style="endArrow=classic;html=1;exitX=0;exitY=0.75;exitDx=0;exitDy=0;" edge="1" parent="1" source="4">
                    <mxGeometry width="50" height="50" relative="1" as="geometry">
                        <mxPoint x="520" y="119.94" as="sourcePoint"/>
                        <mxPoint x="420" y="119.94" as="targetPoint"/>
                    </mxGeometry>
                </mxCell>
                <mxCell id="10" value="" style="endArrow=classic;html=1;entryX=0;entryY=0.25;entryDx=0;entryDy=0;exitX=1.003;exitY=0.053;exitDx=0;exitDy=0;exitPerimeter=0;" edge="1" parent="1" target="5">
                    <mxGeometry width="50" height="50" relative="1" as="geometry">
                        <mxPoint x="420.18000000000006" y="169.48" as="sourcePoint"/>
                        <mxPoint x="520" y="169.94" as="targetPoint"/>
                    </mxGeometry>
                </mxCell>
                <mxCell id="16" value="Zugriffstoken" style="edgeLabel;html=1;align=center;verticalAlign=middle;resizable=0;points=[];fontSize=9;" vertex="1" connectable="0" parent="10">
                    <mxGeometry x="0.3232" y="-1" relative="1" as="geometry">
                        <mxPoint x="-16" y="-11" as="offset"/>
                    </mxGeometry>
                </mxCell>
                <mxCell id="11" value="" style="endArrow=classic;html=1;exitX=0;exitY=0.75;exitDx=0;exitDy=0;" edge="1" parent="1" source="5">
                    <mxGeometry width="50" height="50" relative="1" as="geometry">
                        <mxPoint x="520" y="189.94" as="sourcePoint"/>
                        <mxPoint x="420" y="189.94" as="targetPoint"/>
                    </mxGeometry>
                </mxCell>
                <mxCell id="17" value="Geschütze Ressource" style="edgeLabel;html=1;align=center;verticalAlign=middle;resizable=0;points=[];fontSize=9;" vertex="1" connectable="0" parent="11">
                    <mxGeometry x="-0.3329" y="1" relative="1" as="geometry">
                        <mxPoint x="-17" y="9" as="offset"/>
                    </mxGeometry>
                </mxCell>
                <mxCell id="15" value="Zugriffstoken" style="edgeLabel;html=1;align=center;verticalAlign=middle;resizable=0;points=[];fontSize=9;" vertex="1" connectable="0" parent="1">
                    <mxGeometry x="490.0011128440246" y="129.99754444705528" as="geometry"/>
                </mxCell>
            </root>
        </mxGraphModel>
    </diagram>
</mxfile>